<svg viewBox="0 0 1000 1000" xmlns="http://www.w3.org/2000/svg">
  <defs>
    <path transform="scale(1, -1)" transform-origin="50% 50%" id="latin-capital-s" horiz-adv-x="1000" d="M700 400Q742 400 771 371T800 300T771 229Q759 217 738 209T700 200H300Q259 200 230 229Q200 259 200 300H0Q0 176 88 88T300 0H700Q755 0 813 23T912 88Q1000 176 1000 300T912 512Q825 600 700 600H300Q259 600 230 629Q200 658 200 700T230 771Q259 800 300 800H700Q743 800 771 771Q800 740 800 700H1000Q1000 825 912 912Q825 1000 700 1000H300Q176 1000 88 912T0 700T88 488T300 400H700Z" />
  </defs>
  <use href="#latin-capital-s"></use>
</svg>