<svg viewBox="0 0 1000 1000" xmlns="http://www.w3.org/2000/svg">
  <defs>
    <path transform="scale(1, -1)" transform-origin="50% 50%" id="latin-capital-b" horiz-adv-x="1000" d="M924 500Q987 429 998 339Q1009 250 970 168Q926 79 838 34Q774 0 700 0H0V1000H700Q714 1000 728 999Q809 991 872 946Q948 894 980 807Q1011 727 995 643Q978 560 924 500ZM793 264Q809 303 791 341Q779 368 755 384T700 400H200V200H700Q723 200 742 210Q776 224 793 264ZM793 664Q809 703 791 741Q779 768 755 784T700 800H200V600H700Q723 600 742 610Q778 625 793 664Z" />
  </defs>
  <use href="#latin-capital-b"></use>
</svg>