<svg viewBox="0 0 1000 1000" xmlns="http://www.w3.org/2000/svg">
  <defs>
    <path transform="scale(1, -1)" transform-origin="50% 50%" id="latin-capital-a-tilde" horiz-adv-x="1000" d="M700 1000Q660 1000 610 984T527 944Q452 891 417 798Q400 753 400 699V302Q400 276 389 255Q377 230 353 215T300 200H0V0H300Q379 0 449 39Q536 90 573 177Q600 234 600 300V699Q600 729 616 753T659 790Q698 809 740 791Q789 769 798 719Q800 710 800 699V0H1000V699Q1000 780 961 848Q913 932 825 972Q764 1000 700 1000Z" />
  </defs>
  <use href="#latin-capital-a-tilde"></use>
</svg>