<svg viewBox="0 0 1000 1000" xmlns="http://www.w3.org/2000/svg">
  <defs>
    <path transform="scale(1, -1)" transform-origin="50% 50%" id="latin-small-s" horiz-adv-x="1000" d="M300 1000Q246 1000 197 982Q101 947 47 861Q0 788 0 700V300Q0 242 22 189Q57 99 141 46Q213 0 300 0V200Q273 200 250 214Q200 242 200 300V700Q200 723 211 745Q231 784 271 795Q285 800 300 800H699Q729 800 753 785Q800 756 800 700V300Q800 278 791 258Q774 221 736 207Q695 191 656 210Q614 231 603 275Q600 290 600 306V600H400V300Q400 214 446 140Q495 63 578 26Q658 -10 748 4Q833 18 896 73Q962 131 988 215Q1000 257 1000 300V668Q1001 714 998 737Q987 826 928 895Q871 962 785 988Q743 1000 700 1000H300Z" />
  </defs>
  <use href="#latin-small-s"></use>
</svg>