<svg viewBox="0 0 1000 1000" xmlns="http://www.w3.org/2000/svg">
  <defs>
    <path transform="scale(1, -1) translate(100)" transform-origin="50% 50%" id="latin-capital-a-acute" horiz-adv-x="800" d="M774 424Q810 347 797 254Q785 169 727 102Q667 34 580 11Q544 0 499 0H302Q261 2 241 6Q147 25 83 93Q23 154 6 240Q-12 326 21 411Q58 505 144 556Q215 600 300 600V1000H700V800H500V600Q580 600 647 562Q732 515 774 424ZM592 259Q609 297 593 338Q574 388 520 398Q511 400 482 400H300Q270 400 246 384T209 341Q191 300 208 262Q219 234 245 217T300 200H498Q529 200 554 216T592 259Z" />
  </defs>
  <use href="#latin-capital-a-acute"></use>
</svg>