<svg viewBox="0 0 1000 1000" xmlns="http://www.w3.org/2000/svg">
  <defs>
    <path transform="scale(1, -1)" transform-origin="50% 50%" id="latin-small-q" horiz-adv-x="1000" d="M993 582Q1010 479 986 380Q961 284 905 207Q834 107 722 52Q632 8 539 2Q384 -11 252 66Q153 123 89 215Q20 313 5 432Q-13 559 33 679Q67 769 135 841Q205 917 298 958Q412 1008 536 999Q654 990 753 931Q836 883 896 806Q973 706 993 582ZM800 490Q803 568 766 638Q724 721 636 768Q560 805 478 799Q394 793 328 746Q253 693 221 610Q192 537 203 460Q214 372 273 303Q325 243 400 217V500H600V217Q690 250 745 327Q797 399 800 490Z" />
  </defs>
  <use href="#latin-small-q"></use>
</svg>