<svg viewBox="0 0 1000 1000" xmlns="http://www.w3.org/2000/svg">
  <defs>
    <path transform="scale(1, -1)" transform-origin="50% 50%" id="latin-small-d" horiz-adv-x="1000" d="M700 200H1000V0H700Q658 0 616 12Q522 40 463 117Q400 197 400 300V400H200V0H0V600H400V700Q400 753 418 804Q450 890 527 945Q595 993 676 999Q760 1007 836 968Q923 924 966 838Q1002 771 1000 692Q998 609 952 538Q901 458 812 422Q761 400 700 400H600V300Q600 252 638 222Q664 200 700 200ZM600 700V600H700Q728 600 754 617T792 660Q808 699 794 736Q778 775 742 791Q691 815 646 784Q600 754 600 700Z" />
  </defs>
  <use href="#latin-small-d"></use>
</svg>