<svg viewBox="0 0 1000 1000" xmlns="http://www.w3.org/2000/svg">
  <defs>
    <path transform="scale(1, -1)" transform-origin="50% 50%" id="latin-small-r" horiz-adv-x="1000" d="M999 728Q1000 715 1000 688V300Q1000 254 987 211Q959 121 883 62Q802 0 700 0H300Q204 0 126 56Q48 110 17 201Q0 246 0 300V500Q0 558 21 611Q58 701 140 754Q214 800 300 800V600Q252 600 222 562Q200 536 200 500V300Q200 248 244 217Q269 200 300 200H400V700Q400 723 405 755Q424 851 493 917Q555 978 643 995Q721 1009 793 985Q878 958 936 886Q990 815 999 728ZM800 300V700Q800 724 790 744Q772 781 735 793Q695 809 656 790Q630 777 615 753T600 700V200H700Q730 200 755 217Q800 246 800 300Z" />
  </defs>
  <use href="#latin-small-r"></use>
</svg>