<svg viewBox="0 0 1000 1000" xmlns="http://www.w3.org/2000/svg">
  <defs>
    <path transform="scale(1, -1)" transform-origin="50% 50%" id="latin-capital-a-circumflex" horiz-adv-x="1000" d="M1000 400H600V200H1000V0H0V1000H200V600H400V700Q400 771 433 837Q472 916 552 961Q620 1000 700 1000Q770 1000 837 967Q923 924 967 837Q1000 774 1000 700V400ZM400 200V400H200V200H400ZM600 701V600H800V701Q800 729 784 754T741 791Q708 807 674 796Q642 789 619 759Q600 730 600 701Z" />
  </defs>
  <use href="#latin-capital-a-circumflex"></use>
</svg>