<svg viewBox="0 0 1000 1000" xmlns="http://www.w3.org/2000/svg">
  <defs>
    <path transform="scale(1, -1)" transform-origin="50% 50%" id="latin-capital-a-dieresis" horiz-adv-x="1000" d="M966 838Q1000 774 1000 690Q1000 610 952 538Q901 458 814 422Q757 400 702 400H600V0H0V200H400V400H298Q242 400 187 422Q99 457 48 538Q0 610 0 690Q0 772 33 837Q77 923 163 967Q226 1000 300 1000H700Q764 1000 826 972Q916 931 966 838ZM794 664Q808 704 791 742Q778 768 753 784T700 800H300Q244 800 214 752Q184 701 213 651Q241 600 300 600H700Q767 600 794 664Z" />
  </defs>
  <use href="#latin-capital-a-dieresis"></use>
</svg>