<svg viewBox="0 0 1000 1000" xmlns="http://www.w3.org/2000/svg">
  <defs>
    <path transform="scale(1, -1)" transform-origin="50% 50%" id="latin-small-g" horiz-adv-x="1000" d="M0 1000V0H200V400H400V300Q400 253 416 202Q447 112 526 56Q591 9 674 1Q746 -5 812 22Q902 58 953 139Q1000 212 1000 300V700Q1000 780 961 848Q913 933 825 973Q766 1000 700 1000V800Q730 800 755 783Q800 754 800 700V300Q800 278 791 258Q773 221 737 207Q701 192 662 208Q614 227 602 280Q600 292 600 316V600H200V1000H0Z" />
  </defs>
  <use href="#latin-small-g"></use>
</svg>