<svg viewBox="0 0 1000 1000" xmlns="http://www.w3.org/2000/svg">
  <defs>
    <path transform="scale(1, -1)" transform-origin="50% 50%" id="latin-small-b" horiz-adv-x="1000" d="M800 1000H1000V300Q1000 235 973 175Q932 87 849 39Q780 0 700 0H0V1000H300Q395 1000 472 946Q552 889 583 799Q600 750 600 700V600H700Q756 602 785 647Q800 671 800 700V1000ZM200 800V600H400V700Q400 735 378 762Q348 800 300 800H200ZM800 300V417Q753 400 700 400H200V200H686Q708 200 719 202Q756 208 780 240Q800 266 800 300Z" />
  </defs>
  <use href="#latin-small-b"></use>
</svg>