<svg viewBox="0 0 1000 1000" xmlns="http://www.w3.org/2000/svg">
  <defs>
    <path transform="scale(1, -1)" transform-origin="50% 50%" id="latin-small-c" horiz-adv-x="1000" d="M357 995Q274 1009 201 983Q117 954 62 882Q0 801 0 700V600H200V700Q200 728 217 754T259 791Q297 809 336 793Q370 780 387 749Q400 727 400 700V318Q400 289 401 274Q409 186 463 116T601 17Q646 0 700 0H1000V200H700Q669 200 645 217Q600 246 600 300V700Q600 730 616 754T659 791Q698 810 740 792Q766 781 783 755T800 700V600H1000V700Q1000 773 966 838Q924 921 836 968Q759 1007 674 999Q575 991 500 924Q436 982 357 995Z" />
  </defs>
  <use href="#latin-small-c"></use>
</svg>