<svg viewBox="0 0 1000 1000" xmlns="http://www.w3.org/2000/svg">
  <defs>
    <path transform="scale(1, -1)" transform-origin="50% 50%" id="latin-small-u" horiz-adv-x="1000" d="M276 999Q195 993 127 945Q53 893 21 810Q0 758 0 700V600H200V700Q200 728 217 754T260 792Q302 810 341 791Q368 779 384 755T400 700V0H1000V200H600V500Q600 554 617 599Q648 689 728 746Q806 800 900 800H1000V1000H900Q795 1000 700 958Q619 924 554 860Q505 936 424 973Q353 1005 276 999Z" />
  </defs>
  <use href="#latin-small-u"></use>
</svg>