<svg viewBox="0 0 1000 1000" xmlns="http://www.w3.org/2000/svg">
  <defs>
    <path transform="scale(1, -1)" transform-origin="50% 50%" id="latin-capital-o-dieresis" horiz-adv-x="1000" d="M0 1000V898Q0 843 14 785Q46 642 155 539Q176 518 200 500Q97 423 45 307Q2 213 0 104V0H200V102Q200 179 239 249Q284 326 364 368Q419 395 476 399Q489 400 516 400Q677 405 807 505Q904 581 953 689Q990 768 998 858Q1000 879 1000 922V1000H800V900Q800 846 782 797Q750 710 673 655Q609 609 526 601Q445 595 377 627Q290 666 242 748Q207 807 201 876Q200 891 200 920V1000H0ZM0 1000V898Q0 843 14 785Q46 642 155 539Q176 518 200 500Q97 423 45 307Q2 213 0 104V0H200V102Q200 179 239 249Q284 326 364 368Q419 395 476 399Q489 400 516 400Q677 405 807 505Q904 581 953 689Q990 768 998 858Q1000 879 1000 922V1000H800V900Q800 846 782 797Q750 710 673 655Q609 609 526 601Q445 595 377 627Q290 666 242 748Q207 807 201 876Q200 891 200 920V1000H0Z" />
  </defs>
  <use href="#latin-capital-o-dieresis"></use>
</svg>