<svg viewBox="0 0 1000 1000" xmlns="http://www.w3.org/2000/svg">
  <defs>
    <path transform="scale(1, -1)" transform-origin="50% 50%" id="latin-capital-o-tilde" horiz-adv-x="1000" d="M800 1000V300Q800 270 784 246T741 209Q702 190 660 208Q634 219 617 245T600 300Q600 378 563 445Q515 531 425 573Q353 605 274 599Q185 591 114 536Q42 478 15 393Q-12 312 8 232Q28 140 99 77Q185 0 300 0V200Q275 200 254 212Q220 229 207 264Q191 303 209 341Q229 388 282 398Q318 405 352 386Q388 363 397 323Q399 314 399 298T401 276Q409 186 463 116Q520 44 604 16Q689 -12 772 9Q858 29 918 94Q980 159 995 248Q1000 272 1000 300V1000H800Z" />
  </defs>
  <use href="#latin-capital-o-tilde"></use>
</svg>